<svg width="28" height="28" viewBox="0 0 28 28" fill="none" xmlns="http://www.w3.org/2000/svg">
<g clip-path="url(#clip0_2221_3604)">
<path d="M28 14C28 6.26801 21.732 0 14 0C6.26801 0 0 6.26801 0 14C0 21.732 6.26801 28 14 28C21.732 28 28 21.732 28 14Z" fill="#1B1B1B"/>
<path d="M12.728 16.9958C12.197 16.9958 11.7236 16.8934 11.3078 16.6887C10.8919 16.484 10.5624 16.1865 10.3193 15.7962C10.0826 15.3995 9.96423 14.9293 9.96423 14.3855C9.96423 13.8161 10.0794 13.3139 10.3097 12.8789C10.54 12.4438 10.8599 12.108 11.2694 11.8713C11.6852 11.6281 12.1618 11.5066 12.6992 11.5066C13.2558 11.5066 13.7229 11.6281 14.1003 11.8713C14.4778 12.108 14.7593 12.4502 14.9448 12.8981C15.1367 13.3459 15.2295 13.8769 15.2231 14.4911H10.492V13.5986H14.4842L13.918 14.0209C13.918 13.7074 13.8732 13.4323 13.7836 13.1956C13.7005 12.9589 13.5661 12.7701 13.3806 12.6294C13.2014 12.4886 12.9743 12.4183 12.6992 12.4183C12.4177 12.4183 12.1714 12.495 11.9603 12.6486C11.7492 12.8021 11.586 13.026 11.4709 13.3203C11.3557 13.6146 11.2982 13.9601 11.2982 14.3567C11.2982 14.7086 11.3589 15.0125 11.4805 15.2684C11.6084 15.5243 11.7812 15.7194 11.9987 15.8538C12.2226 15.9817 12.4689 16.0457 12.7376 16.0457C13.1087 16.0457 13.4158 15.9466 13.6589 15.7482C13.9084 15.5435 14.0907 15.2876 14.2059 14.9805L15.2903 15.6331C14.9832 16.0937 14.6089 16.436 14.1675 16.6599C13.7325 16.8838 13.2526 16.9958 12.728 16.9958Z" fill="white"/>
<path d="M18.3663 16.9958C17.8353 16.9958 17.3619 16.8934 16.9461 16.6887C16.5302 16.484 16.2007 16.1865 15.9576 15.7962C15.7209 15.3995 15.6025 14.9293 15.6025 14.3855C15.6025 13.8161 15.7177 13.3139 15.948 12.8789C16.1783 12.4438 16.4982 12.108 16.9077 11.8713C17.3235 11.6281 17.8001 11.5066 18.3376 11.5066C18.8941 11.5066 19.3612 11.6281 19.7386 11.8713C20.1161 12.108 20.3976 12.4502 20.5831 12.8981C20.775 13.3459 20.8678 13.8769 20.8614 14.4911H16.1303V13.5986H20.1225L19.5563 14.0209C19.5563 13.7074 19.5115 13.4323 19.4219 13.1956C19.3388 12.9589 19.2044 12.7701 19.0189 12.6294C18.8398 12.4886 18.6126 12.4183 18.3376 12.4183C18.0561 12.4183 17.8097 12.495 17.5986 12.6486C17.3875 12.8021 17.2244 13.026 17.1092 13.3203C16.994 13.6146 16.9365 13.9601 16.9365 14.3567C16.9365 14.7086 16.9972 15.0125 17.1188 15.2684C17.2467 15.5243 17.4195 15.7194 17.637 15.8538C17.8609 15.9817 18.1072 16.0457 18.3759 16.0457C18.747 16.0457 19.0541 15.9466 19.2972 15.7482C19.5467 15.5435 19.729 15.2876 19.8442 14.9805L20.9286 15.6331C20.6215 16.0937 20.2472 16.436 19.8058 16.6599C19.3708 16.8838 18.8909 16.9958 18.3663 16.9958Z" fill="white"/>
<path d="M21.2888 10H22.5747V15.6139C22.5747 16.0682 22.5971 16.484 22.6419 16.8615H21.2888V10Z" fill="white"/>
<path d="M4 14.2549C4 12.3543 5.2132 11.5098 6.54351 11.5098C7.75765 11.5098 8.26963 12.2812 8.26963 12.2812V10.0026H9.58463V15.618C9.58463 16.079 9.60048 16.4949 9.63265 16.8658H8.27005V16.2355C8.27005 16.2355 7.74829 17 6.54394 17C5.26002 17 4 16.2633 4 14.2549ZM6.87938 15.991C7.81071 15.991 8.41285 15.2822 8.41285 14.2549C8.41285 13.1917 7.81028 12.5188 6.87938 12.5188C5.94847 12.5188 5.36817 13.1585 5.36817 14.2549C5.36817 15.3513 5.97291 15.991 6.87938 15.991Z" fill="white"/>
<path d="M23.406 15.6332H24.6727V16.8615H23.406V15.6332Z" fill="white"/>
</g>
<defs>
<clipPath id="clip0_2221_3604">
<rect width="28" height="28" fill="white"/>
</clipPath>
</defs>
</svg>
