<svg width="28" height="28" viewBox="0 0 28 28" fill="none" xmlns="http://www.w3.org/2000/svg">
<g clip-path="url(#clip0_2221_3632)">
<path d="M28 14C28 6.26801 21.732 0 14 0C6.26801 0 0 6.26801 0 14C0 21.732 6.26801 28 14 28C21.732 28 28 21.732 28 14Z" fill="#98E9AC"/>
<path d="M15.5345 4.08991C15.2451 4.04577 14.9589 4.01962 14.6711 4L22.4041 8.57702C21.6422 7.38542 20.6358 6.3692 19.4516 5.59564C18.2673 4.82209 16.9321 4.30885 15.5345 4.08991Z" fill="#040411"/>
<path d="M23.9628 13.0281L4.5756 10.5875C4.35203 11.202 4.18776 11.8364 4.08503 12.4821C4.04252 12.7567 4.01962 13.0314 4 13.2994L24.007 13.4808C23.9987 13.3305 23.9775 13.1801 23.9628 13.0281Z" fill="#040411"/>
<path d="M22.5808 19.2104L15.1896 24C16.7049 23.8164 18.1583 23.2896 19.4392 22.4596C20.7201 21.6296 21.7945 20.5183 22.5808 19.2104Z" fill="#040411"/>
<path d="M23.1748 10.0023L11.8918 4.20264C10.8505 4.42386 9.85126 4.81016 8.93201 5.34689L23.4855 10.805C23.3972 10.5385 23.2991 10.2656 23.1748 10.0023Z" fill="#040411"/>
<path d="M4.04895 15.2152C4.1587 16.1367 4.39646 17.0385 4.75537 17.8943L23.9954 14.6757C24.0052 14.5221 24.0068 14.3701 24.0101 14.218L4.04895 15.2152Z" fill="#040411"/>
<path d="M12.385 23.9425L23.2985 17.7586C23.4048 17.4889 23.498 17.2143 23.583 16.9413L9.37292 22.9454C10.3172 23.4367 11.3341 23.7733 12.385 23.9425Z" fill="#040411"/>
<path d="M7.60093 21.7605L23.806 16.0049C23.8354 15.8594 23.873 15.7171 23.8959 15.5684C23.8959 15.5308 23.8959 15.4965 23.9073 15.4589L5.68445 19.6272C6.21812 20.4261 6.8635 21.1445 7.60093 21.7605Z" fill="#040411"/>
<path d="M23.752 11.7205L7.23463 6.61548C6.52568 7.26185 5.91331 8.00669 5.41626 8.82716L23.8583 12.2599C23.8256 12.0768 23.7896 11.897 23.752 11.7205Z" fill="#040411"/>
</g>
<defs>
<clipPath id="clip0_2221_3632">
<rect width="28" height="28" fill="white"/>
</clipPath>
</defs>
</svg>
