<svg width="28" height="28" viewBox="0 0 28 28" fill="none" xmlns="http://www.w3.org/2000/svg">
<g clip-path="url(#clip0_2221_3735)">
<path d="M28 14C28 6.26801 21.732 0 14 0C6.26801 0 0 6.26801 0 14C0 21.732 6.26801 28 14 28C21.732 28 28 21.732 28 14Z" fill="#1B1B1B"/>
<g clip-path="url(#clip1_2221_3735)">
<path d="M4.8733 12.7265H3V11.0123H8.80969V12.7265H6.93639V17.7036H4.8733V12.7265Z" fill="#EE2722"/>
<path d="M9.13416 11.0123H14.7786V12.7265H11.1972V13.559H14.7786V15.1507H11.1972V15.9833H14.7786V17.6975H9.13416V11.0123Z" fill="#EE2722"/>
<path d="M17.1844 15.9894H17.9925C19.2781 15.9894 19.4679 14.9487 19.4679 14.3182C19.4679 13.8957 19.3332 12.7265 17.8456 12.7265H17.1905V15.9894H17.1844ZM15.1213 11.0123H18.5068C20.7351 11.0123 21.5249 12.6652 21.5249 14.3488C21.5249 16.4057 20.4352 17.7036 18.1027 17.7036H15.1213V11.0123Z" fill="#EE2722"/>
<path d="M24.4883 15.1269L23.8576 14.086L23.2453 15.1269H21.7329L23.1718 13.0206L21.788 11H23.3004L23.8576 11.9981L24.4393 11H25.9517L24.5679 13.0206L26.0007 15.1331H24.4883V15.1269Z" fill="#EE2722"/>
</g>
</g>
<defs>
<clipPath id="clip0_2221_3735">
<rect width="28" height="28" fill="white"/>
</clipPath>
<clipPath id="clip1_2221_3735">
<rect width="23" height="6.70961" fill="white" transform="translate(3 11)"/>
</clipPath>
</defs>
</svg>
